<?xml version="1.0" encoding="UTF-8"?>
<svg width="17px" height="30px" viewBox="0 0 17 30" version="1.1" xmlns="http://www.w3.org/2000/svg" xmlns:xlink="http://www.w3.org/1999/xlink">
    <!-- Generator: Sketch 48.2 (47327) - http://www.bohemiancoding.com/sketch -->
    <title>Fill 209</title>
    <desc>Created with Sketch.</desc>
    <defs></defs>
    <g id="Nuevo-Reto_Desktop" stroke="none" stroke-width="1" fill="none" fill-rule="evenodd" transform="translate(-1035.000000, -580.000000)">
        <g id="atach_icon-copy-2" transform="translate(1020.000000, 571.000000)" fill="#109DFF">
            <path d="M29.8295455,12.7840909 L29.8295455,31.25 C29.8295455,34.3088778 27.1578125,36.7897727 23.8636364,36.7897727 C20.5694602,36.7897727 17.8977273,34.3088778 17.8977273,31.25 L17.8977273,14.6306818 C17.8977273,12.5911222 19.6785511,10.9375 21.875,10.9375 C24.0714489,10.9375 25.8522727,12.5911222 25.8522727,14.6306818 L25.8522727,31.25 C25.8522727,32.2693182 24.9613636,33.0965909 23.8636364,33.0965909 C22.7659091,33.0965909 21.875,32.2693182 21.875,31.25 L21.875,16.4772727 L19.8863636,16.4772727 L19.8863636,31.25 C19.8863636,33.2895597 21.6671875,34.9431818 23.8636364,34.9431818 C26.0600852,34.9431818 27.8409091,33.2895597 27.8409091,31.25 L27.8409091,14.6306818 C27.8409091,11.571804 25.1691761,9.09090909 21.875,9.09090909 C18.5808239,9.09090909 15.9090909,11.571804 15.9090909,14.6306818 L15.9090909,32.1732955 C16.3992898,35.815696 19.8078125,38.6363636 23.8636364,38.6363636 C27.9194602,38.6363636 31.327983,35.815696 31.8181818,32.1732955 L31.8181818,12.7840909 L29.8295455,12.7840909" id="Fill-209"></path>
        </g>
    </g>
</svg>