<?xml version="1.0" encoding="UTF-8"?>
<svg width="29px" height="14px" viewBox="0 0 29 14" version="1.1" xmlns="http://www.w3.org/2000/svg" xmlns:xlink="http://www.w3.org/1999/xlink">
    <!-- Generator: Sketch 48.2 (47327) - http://www.bohemiancoding.com/sketch -->
    <title>Fill 9</title>
    <desc>Created with Sketch.</desc>
    <defs></defs>
    <g id="Nuevo-Reto_Desktop" stroke="none" stroke-width="1" fill="none" fill-rule="evenodd" transform="translate(-216.000000, -19.000000)">
        <g id="Menu-lateral" fill="#FFFFFE">
            <path d="M243.633602,24.9925 L219.368602,24.9925 L223.627602,20.7225 C224.019602,20.3225 224.019602,19.6925 223.627602,19.2925 C223.235602,18.9025 222.600602,18.9025 222.208602,19.2925 L216.285602,25.2325 C216.076602,25.4425 215.986602,25.7225 216.001602,25.9925 C215.986602,26.2725 216.076602,26.5525 216.285602,26.7625 L222.208602,32.7025 C222.600602,33.0925 223.235602,33.0925 223.627602,32.7025 C224.019602,32.3025 224.019602,31.6725 223.627602,31.2725 L219.368602,27.0025 L243.633602,27.0025 C244.188648,27.0025 244.638602,26.5525462 244.638602,25.9975 L244.638602,25.9975 C244.638602,25.4424538 244.188648,24.9925 243.633602,24.9925 Z" id="Fill-9"></path>
        </g>
    </g>
</svg>