<?xml version="1.0" encoding="UTF-8"?>
<svg width="22px" height="21px" viewBox="0 0 18 21" version="1.1" xmlns="http://www.w3.org/2000/svg" xmlns:xlink="http://www.w3.org/1999/xlink">
    <!-- Generator: Sketch 48.2 (47327) - http://www.bohemiancoding.com/sketch -->
    <title>Fill 163</title>
    <desc>Created with Sketch.</desc>
    <defs></defs>
    <g id="Dashboard_Desktop" stroke="none" stroke-width="1" fill="none" fill-rule="evenodd" transform="translate(-35.000000, -421.000000)">
        <g id="Menu-lateral" fill="#FFBB11">
            <path d="M44,435 C42.8528462,435 41.9230769,434.0599 41.9230769,432.9 C41.9230769,431.9865 42.5032308,431.2179 43.3076923,430.9288 L43.3076923,427.3 C43.3076923,426.9136 43.6171538,426.6 44,426.6 C44.3828462,426.6 44.6923077,426.9136 44.6923077,427.3 L44.6923077,430.9288 C45.4967692,431.2179 46.0769231,431.9865 46.0769231,432.9 C46.0769231,434.0599 45.1471538,435 44,435 L44,435 Z M44.6853846,423.835 L44.6923077,422.4 L47.4615385,422.4 C47.8443846,422.4 48.1538462,422.0871 48.1538462,421.7 C48.1538462,421.3129 47.8443846,421 47.4615385,421 L40.5384615,421 C40.1556154,421 39.8461538,421.3129 39.8461538,421.7 C39.8461538,422.0871 40.1556154,422.4 40.5384615,422.4 L43.3076923,422.4 L43.3076923,423.8 L43.3146154,423.835 C38.6657692,424.1906 35,428.1078 35,432.9 C35,437.926 39.0292308,442 44,442 C48.9707692,442 53,437.926 53,432.9 C53,428.1078 49.3342308,424.1906 44.6853846,423.835 L44.6853846,423.835 Z" id="Fill-163"></path>
        </g>
    </g>
</svg>
