<?xml version="1.0" encoding="UTF-8"?>
<svg width="22px" height="23px" viewBox="0 0 16 23" version="1.1" xmlns="http://www.w3.org/2000/svg" xmlns:xlink="http://www.w3.org/1999/xlink">
    <!-- Generator: Sketch 48.2 (47327) - http://www.bohemiancoding.com/sketch -->
    <title>Fill 176</title>
    <desc>Created with Sketch.</desc>
    <defs></defs>
    <g id="Login_Desktop" stroke="none" stroke-width="1" fill="none" fill-rule="evenodd" transform="translate(-541.000000, -471.000000)">
        <g id="Group" transform="translate(531.000000, 471.000000)" fill="#FFBB11">
            <path d="M18,14.375 C21.6152727,14.375 24.5454545,11.1564375 24.5454545,7.1875 C24.5454545,3.2185625 21.6152727,0 18,0 C14.3847273,0 11.4545455,3.2185625 11.4545455,7.1875 C11.4545455,11.1564375 14.3847273,14.375 18,14.375 L18,14.375 Z M24.3294545,12.4480312 C22.8661818,14.4907187 20.5789091,15.8125 18,15.8125 C15.4210909,15.8125 13.1338182,14.4907187 11.6705455,12.4480312 C10.6574545,13.2329062 10,14.4404063 10,15.8125 L10,18.6875 C10,21.0687187 11.9541818,23 14.3636364,23 L21.6363636,23 C24.0458182,23 26,21.0687187 26,18.6875 L26,15.8125 C26,14.4404063 25.3425455,13.2329062 24.3294545,12.4480312 L24.3294545,12.4480312 Z" id="Fill-176"></path>
        </g>
    </g>
</svg>
