<?xml version="1.0" encoding="UTF-8"?>
<svg width="14px" height="14px" viewBox="0 0 14 14" version="1.1" xmlns="http://www.w3.org/2000/svg" xmlns:xlink="http://www.w3.org/1999/xlink">
    <!-- Generator: Sketch 48.2 (47327) - http://www.bohemiancoding.com/sketch -->
    <title>Fill 19</title>
    <desc>Created with Sketch.</desc>
    <defs></defs>
    <g id="Grupos_Desktop" stroke="none" stroke-width="1" fill="none" fill-rule="evenodd" transform="translate(-1250.000000, -380.000000)">
        <g id="Table" transform="translate(345.000000, 289.000000)" fill="#109DFF">
            <path d="M910.890591,101.700219 C908.137856,101.700219 905.906346,99.5076586 905.906346,96.7986871 C905.906346,94.0897155 908.137856,91.892779 910.890591,91.892779 C913.643326,91.892779 915.875274,94.0897155 915.875274,96.7986871 C915.875274,99.5076586 913.643326,101.700219 910.890591,101.700219 L910.890591,101.700219 Z M918.867834,104.238512 L915.253392,100.680525 C916.199562,99.6520788 916.781182,98.2954048 916.781182,96.7986871 C916.781182,93.595186 914.143982,91 910.890591,91 C907.637199,91 905,93.595186 905,96.7986871 C905,99.9978118 907.637199,102.592998 910.890591,102.592998 C912.29628,102.592998 913.585558,102.107221 914.598249,101.297593 L918.227133,104.868709 C918.404376,105.043764 918.691028,105.043764 918.867834,104.868709 C919.045077,104.698031 919.045077,104.413567 918.867834,104.238512 L918.867834,104.238512 Z" id="Fill-19"></path>
        </g>
    </g>
</svg>