<?xml version="1.0" encoding="UTF-8"?>
<svg width="22px" height="16px" viewBox="0 0 22 16" version="1.1" xmlns="http://www.w3.org/2000/svg" xmlns:xlink="http://www.w3.org/1999/xlink">
    <!-- Generator: Sketch 48.2 (47327) - http://www.bohemiancoding.com/sketch -->
    <title>Fill 57</title>
    <desc>Created with Sketch.</desc>
    <defs></defs>
    <g id="Dashboard_Desktop" stroke="none" stroke-width="1" fill="none" fill-rule="evenodd" transform="translate(-33.000000, -622.000000)">
        <g id="Menu-lateral" fill="#FFBB11">
            <path d="M33.7857143,629.2 C33.3512143,629.2 33,629.5584 33,630 C33,630.4424 33.3512143,630.8 33.7857143,630.8 L39.2857143,630.8 L39.2857143,629.2 L33.7857143,629.2 L33.7857143,629.2 Z M53.4285714,622 L40.8571429,622 C39.9897143,622 39.2857143,622.7168 39.2857143,623.6 L39.2857143,629.2 L50.7461429,629.2 L46.6266429,625.0064 C46.3202143,624.6936 46.3202143,624.1864 46.6266429,623.8752 C46.9330714,623.5624 47.4312143,623.5624 47.7384286,623.8752 L53.1590714,629.3944 C53.3225,629.5608 53.3924286,629.7824 53.3814286,630 C53.3924286,630.2176 53.3225,630.4392 53.1590714,630.6064 L47.7384286,636.1256 C47.4312143,636.4384 46.9330714,636.4384 46.6266429,636.1256 C46.3202143,635.8136 46.3202143,635.3064 46.6266429,634.9944 L50.7461429,630.8 L39.2857143,630.8 L39.2857143,636.4 C39.2857143,637.2832 39.9897143,638 40.8571429,638 L53.4285714,638 C54.296,638 55,637.2832 55,636.4 L55,623.6 C55,622.7168 54.296,622 53.4285714,622 L53.4285714,622 Z" id="Fill-57"></path>
        </g>
    </g>
</svg>