<?xml version="1.0" encoding="UTF-8"?>
<svg width="21px" height="21px" viewBox="0 0 21 21" version="1.1" xmlns="http://www.w3.org/2000/svg" xmlns:xlink="http://www.w3.org/1999/xlink">
    <!-- Generator: Sketch 48.2 (47327) - http://www.bohemiancoding.com/sketch -->
    <title>Fill 85</title>
    <desc>Created with Sketch.</desc>
    <defs></defs>
    <g id="Dashboard_Desktop" stroke="none" stroke-width="1" fill="none" fill-rule="evenodd" transform="translate(-34.000000, -304.000000)">
        <g id="Menu-lateral" fill="#FFBB11">
            <path d="M53.6,305.4 L50.8,305.1459 L50.8,313.3541 L53.6,313.1 C54.3728,313.1 55,312.4728 55,311.7 L55,306.8 C55,306.0272 54.3728,305.4 53.6,305.4 L53.6,305.4 Z M45.2,313.8637 L49.4,313.4822 L49.4,305.0185 L45.2,304.6363 L45.2,313.8637 L45.2,313.8637 Z M36.8,305.4 L36.8,313.1 C36.8,313.8728 37.4272,314.5 38.2,314.5 L43.8,313.9904 L43.8,304.5096 L38.2,304 C37.4272,304 36.8,304.6272 36.8,305.4 L36.8,305.4 Z M34.7,304 C34.3129,304 34,304.3136 34,304.7 L34,324.3 C34,324.6871 34.3129,325 34.7,325 C35.0871,325 35.4,324.6871 35.4,324.3 L35.4,304.7 C35.4,304.3136 35.0871,304 34.7,304 L34.7,304 Z" id="Fill-85"></path>
        </g>
    </g>
</svg>