<?xml version="1.0" encoding="UTF-8"?>
<svg width="21px" height="21px" viewBox="0 0 21 21" version="1.1" xmlns="http://www.w3.org/2000/svg" xmlns:xlink="http://www.w3.org/1999/xlink">
    <!-- Generator: Sketch 48.2 (47327) - http://www.bohemiancoding.com/sketch -->
    <title>Fill 171</title>
    <desc>Created with Sketch.</desc>
    <defs></defs>
    <g id="Dashboard_Desktop" stroke="none" stroke-width="1" fill="none" fill-rule="evenodd" transform="translate(-34.000000, -561.000000)">
        <g id="Menu-lateral" fill="#FFBB11">
            <path d="M44.4999236,575 C42.5825475,575 41.0291859,573.4334 41.0291859,571.5 C41.0291859,569.5666 42.5825475,568 44.4999236,568 C46.4172996,568 47.9713612,569.5666 47.9713612,571.5 C47.9713612,573.4334 46.4172996,575 44.4999236,575 L44.4999236,575 Z M54.3059124,573.9752 L52.6797479,573.0288 C52.7707515,572.5318 52.8309539,572.0243 52.8309539,571.5 C52.8309539,570.9764 52.7707515,570.4682 52.6797479,569.9712 L54.3059124,569.0248 C54.9702387,568.6384 55.1970477,567.7816 54.8134325,567.1124 L53.4252775,564.6876 C53.0423623,564.0184 52.1925286,563.7881 51.5289023,564.1752 L49.8859371,565.1307 C49.1187067,564.4727 48.2464721,563.9344 47.2769337,563.5879 L47.2769337,562.4 C47.2769337,561.6272 46.655309,561 45.8880786,561 L43.1117685,561 C42.3445381,561 41.7229134,561.6272 41.7229134,562.4 L41.7229134,563.5879 C40.753375,563.9344 39.8811404,564.4727 39.11391,565.1307 L37.4709448,564.1752 C36.8073185,563.7881 35.9574848,564.0184 35.5745696,564.6876 L34.1864146,567.1124 C33.8027994,567.7816 34.0303084,568.6384 34.6939347,569.0248 L36.3200992,569.9712 C36.2290956,570.4682 36.1688932,570.9764 36.1688932,571.5 C36.1688932,572.0243 36.2290956,572.5318 36.3200992,573.0288 L34.6939347,573.9752 C34.0303084,574.3616 33.8027994,575.2184 34.1864146,575.8876 L35.5745696,578.3124 C35.9574848,578.9816 36.8073185,579.2119 37.4709448,578.8248 L39.11391,577.8693 C39.8811404,578.5273 40.753375,579.0663 41.7229134,579.4121 L41.7229134,580.6 C41.7229134,581.3728 42.3445381,582 43.1117685,582 L45.8880786,582 C46.655309,582 47.2769337,581.3728 47.2769337,580.6 L47.2769337,579.4121 C48.2464721,579.0663 49.1187067,578.5273 49.8859371,577.8693 L51.5289023,578.8248 C52.1925286,579.2119 53.0423623,578.9816 53.4252775,578.3124 L54.8134325,575.8876 C55.1970477,575.2184 54.9702387,574.3616 54.3059124,573.9752 L54.3059124,573.9752 Z M44.4999236,569.4 C43.349778,569.4 42.417341,570.3408 42.417341,571.5 C42.417341,572.6599 43.349778,573.6 44.4999236,573.6 C45.6500692,573.6 46.5825061,572.6599 46.5825061,571.5 C46.5825061,570.3408 45.6500692,569.4 44.4999236,569.4 L44.4999236,569.4 Z" id="Fill-171"></path>
        </g>
    </g>
</svg>