<?xml version="1.0" encoding="UTF-8"?>
<svg width="16px" height="26px" viewBox="0 0 16 26" version="1.1" xmlns="http://www.w3.org/2000/svg" xmlns:xlink="http://www.w3.org/1999/xlink">
    <!-- Generator: Sketch 48.2 (47327) - http://www.bohemiancoding.com/sketch -->
    <title>Fill 173</title>
    <desc>Created with Sketch.</desc>
    <defs></defs>
    <g id="Login_Desktop" stroke="none" stroke-width="1" fill="none" fill-rule="evenodd" transform="translate(-540.000000, -564.000000)">
        <g id="Group" transform="translate(531.000000, 471.000000)" fill="#BDBDBD">
            <path d="M21.8,104.386375 C20.4616,103.363438 18.804,102.75 17,102.75 C15.1968,102.75 13.5384,103.363438 12.2,104.386375 L12.2,99.5 C12.2,96.8081875 14.3496,94.625 17,94.625 C19.6504,94.625 21.8,96.8081875 21.8,99.5 L21.8,104.386375 L21.8,104.386375 Z M17.8,113.3125 C17.8,113.761812 17.4424,114.125 17,114.125 C16.5576,114.125 16.2,113.761812 16.2,113.3125 L16.2,110.0625 C16.2,109.614 16.5576,109.25 17,109.25 C17.4424,109.25 17.8,109.614 17.8,110.0625 L17.8,113.3125 L17.8,113.3125 Z M23.4,106.015438 L23.4,99.5 C23.4,95.910375 20.5344,93 17,93 C13.4656,93 10.6,95.910375 10.6,99.5 L10.6,106.015438 C9.6,107.3715 9,109.050125 9,110.875 C9,115.362438 12.5824,119 17,119 C21.4176,119 25,115.362438 25,110.875 C25,109.050125 24.4,107.3715 23.4,106.015438 L23.4,106.015438 Z" id="Fill-173"></path>
        </g>
    </g>
</svg>