<?xml version="1.0" encoding="UTF-8"?>
<svg width="624px" height="131px" viewBox="0 0 624 131" version="1.1" xmlns="http://www.w3.org/2000/svg" xmlns:xlink="http://www.w3.org/1999/xlink">
    <!-- Generator: sketchtool 48.2 (47327) - http://www.bohemiancoding.com/sketch -->
    <title>26EFF2F8-E286-4139-A9FD-8FA44D21C549</title>
    <desc>Created with sketchtool.</desc>
    <defs>
        <polygon id="path-1" points="0 0.41265 4.86214286 0.41265 4.86214286 5.5179 0 5.5179"></polygon>
        <polygon id="path-3" points="0.69735 0.138285714 5.80485 0.138285714 5.80485 5 0.69735 5"></polygon>
    </defs>
    <g id="Login_Desktop" stroke="none" stroke-width="1" fill="none" fill-rule="evenodd" transform="translate(-756.000000, -240.000000)" opacity="0.3">
        <g id="Page-1-Copy-3" transform="translate(756.000000, 240.000000)">
            <g id="Group-3">
                <mask id="mask-2" fill="white">
                    <use xlink:href="#path-1"></use>
                </mask>
                <g id="Clip-2"></g>
                <path d="M4.86214286,2.96415 C4.86214286,4.3749 3.77357143,5.5179 2.43,5.5179 C1.08642857,5.5179 -0.00214285714,4.3749 -0.00214285714,2.96415 C-0.00214285714,1.55565 1.08642857,0.41265 2.43,0.41265 C3.77357143,0.41265 4.86214286,1.55565 4.86214286,2.96415" id="Fill-1" fill="#FFFFFF" mask="url(#mask-2)"></path>
            </g>
            <path d="M201,3.49889819 C201,4.88056413 199.881057,6 198.5,6 C197.118943,6 196,4.88056413 196,3.49889819 C196,2.11943587 197.118943,1 198.5,1 C199.881057,1 201,2.11943587 201,3.49889819" id="Fill-4" fill="#FFFFFF"></path>
            <path d="M40,94.4988982 C40,95.8805641 38.8805641,97 37.4988982,97 C36.1172323,97 35,95.8805641 35,94.4988982 C35,93.1194359 36.1172323,92 37.4988982,92 C38.8805641,92 40,93.1194359 40,94.4988982" id="Fill-6" fill="#FFFFFF"></path>
            <g id="Group-10" transform="translate(618.000000, 126.000000)">
                <mask id="mask-4" fill="white">
                    <use xlink:href="#path-3"></use>
                </mask>
                <g id="Clip-9"></g>
                <path d="M5.80485,2.56828571 C5.80485,3.91185714 4.66185,5.00042857 3.2511,5.00042857 C1.84035,5.00042857 0.69735,3.91185714 0.69735,2.56828571 C0.69735,1.22685714 1.84035,0.138285714 3.2511,0.138285714 C4.66185,0.138285714 5.80485,1.22685714 5.80485,2.56828571" id="Fill-8" fill="#FFFFFF" mask="url(#mask-4)"></path>
            </g>
            <path d="M225,91.4988982 C225,92.8805641 223.880564,94 222.498898,94 C221.117232,94 220,92.8805641 220,91.4988982 C220,90.1194359 221.117232,89 222.498898,89 C223.880564,89 225,90.1194359 225,91.4988982" id="Fill-11" fill="#FFFFFF"></path>
            <path d="M361,35.4988982 C361,36.8805641 359.881057,38 358.5,38 C357.118943,38 356,36.8805641 356,35.4988982 C356,34.1194359 357.118943,33 358.5,33 C359.881057,33 361,34.1194359 361,35.4988982" id="Fill-13" fill="#FFFFFF"></path>
            <path d="M518,5.49889819 C518,6.88056413 516.881057,8 515.5,8 C514.118943,8 513,6.88056413 513,5.49889819 C513,4.11943587 514.118943,3 515.5,3 C516.881057,3 518,4.11943587 518,5.49889819" id="Fill-15" fill="#FFFFFF"></path>
        </g>
    </g>
</svg>